<svg width="36" height="36" viewBox="0 0 36 36" fill="none" xmlns="http://www.w3.org/2000/svg">
  <rect x="10" y="10" width="16" height="16" rx="2" fill="white" opacity="0.95"/>
  <rect x="13" y="13" width="4" height="4" rx="0.5" fill="#7800ff"/>
  <rect x="19" y="13" width="4" height="4" rx="0.5" fill="#ff0064"/>
  <rect x="13" y="19" width="4" height="4" rx="0.5" fill="#ff0064"/>
  <rect x="19" y="19" width="4" height="4" rx="0.5" fill="#7800ff"/>
  <line x1="6" y1="13" x2="10" y2="13" stroke="white" stroke-width="1.5" stroke-linecap="round"/>
  <line x1="6" y1="16" x2="10" y2="16" stroke="white" stroke-width="1.5" stroke-linecap="round"/>
  <line x1="6" y1="19" x2="10" y2="19" stroke="white" stroke-width="1.5" stroke-linecap="round"/>
  <line x1="6" y1="22" x2="10" y2="22" stroke="white" stroke-width="1.5" stroke-linecap="round"/>
  <line x1="26" y1="13" x2="30" y2="13" stroke="white" stroke-width="1.5" stroke-linecap="round"/>
  <line x1="26" y1="16" x2="30" y2="16" stroke="white" stroke-width="1.5" stroke-linecap="round"/>
  <line x1="26" y1="19" x2="30" y2="19" stroke="white" stroke-width="1.5" stroke-linecap="round"/>
  <line x1="26" y1="22" x2="30" y2="22" stroke="white" stroke-width="1.5" stroke-linecap="round"/>
  <line x1="13" y1="6" x2="13" y2="10" stroke="white" stroke-width="1.5" stroke-linecap="round"/>
  <line x1="16" y1="6" x2="16" y2="10" stroke="white" stroke-width="1.5" stroke-linecap="round"/>
  <line x1="19" y1="6" x2="19" y2="10" stroke="white" stroke-width="1.5" stroke-linecap="round"/>
  <line x1="22" y1="6" x2="22" y2="10" stroke="white" stroke-width="1.5" stroke-linecap="round"/>
  <line x1="13" y1="26" x2="13" y2="30" stroke="white" stroke-width="1.5" stroke-linecap="round"/>
  <line x1="16" y1="26" x2="16" y2="30" stroke="white" stroke-width="1.5" stroke-linecap="round"/>
  <line x1="19" y1="26" x2="19" y2="30" stroke="white" stroke-width="1.5" stroke-linecap="round"/>
  <line x1="22" y1="26" x2="22" y2="30" stroke="white" stroke-width="1.5" stroke-linecap="round"/>
</svg>
